<svg xmlns="http://www.w3.org/2000/svg" viewBox="0 0 1024 1024" role="img" aria-label="Arbor">
  <rect width="1024" height="1024" rx="220" fill="#F5EFE2"/>
  <path d="M512 935 Q498 790 504 660 Q510 540 512 470"
        stroke="#1A1A1A" stroke-width="78" fill="none" stroke-linecap="round"/>
  <g stroke="#1A1A1A" stroke-width="28" fill="none" stroke-linecap="round">
    <path d="M512 470 L512 250"/>
    <path d="M508 500 Q452 420 380 345"/>
    <path d="M516 500 Q572 420 644 345"/>
    <path d="M498 555 Q400 540 290 555"/>
    <path d="M526 555 Q624 540 734 555"/>
    <path d="M492 645 Q380 685 315 730"/>
    <path d="M532 645 Q644 685 709 730"/>
  </g>
  <g fill="#F4ECDC" stroke="#1A1A1A" stroke-width="14">
    <circle cx="380" cy="345" r="55"/>
    <circle cx="644" cy="345" r="55"/>
    <circle cx="290" cy="555" r="55"/>
    <circle cx="734" cy="555" r="55"/>
    <circle cx="315" cy="730" r="55"/>
    <circle cx="709" cy="730" r="55"/>
  </g>
  <circle cx="512" cy="225" r="60" fill="#C0392B" stroke="#1A1A1A" stroke-width="14"/>
</svg>
